<?xml version="1.0" encoding="utf-8" ?><svg xmlns="http://www.w3.org/2000/svg" xmlns:xlink="http://www.w3.org/1999/xlink" width="866" height="868" viewBox="0 0 866 868"><clipPath id="cl_3"><rect width="866.3064" height="868"/></clipPath><g clip-path="url(#cl_3)"><path fill="white" transform="scale(0.846829 0.846829)" d="M512.617 0.875198Q462.23 0.875198 412.813 10.7032Q363.395 20.5312 316.845 39.8099Q270.294 59.0881 228.401 87.0759Q186.506 115.064 150.878 150.686Q115.25 186.308 87.2573 228.195Q59.2644 270.08 39.9826 316.623Q20.7007 363.165 10.871 412.574Q1.04125 461.982 1.04125 512.36Q1.04125 562.738 10.871 612.146Q20.7007 661.556 39.9826 708.097Q59.2644 754.64 87.2573 796.526Q115.25 838.413 150.878 874.035Q186.506 909.657 228.401 937.644Q270.294 965.632 316.845 984.91Q363.395 1004.19 412.813 1014.02Q462.23 1023.85 512.617 1023.85Q563.003 1023.85 612.42 1014.02Q661.838 1004.19 708.388 984.91Q754.939 965.632 796.832 937.644Q838.727 909.657 874.355 874.035Q909.983 838.413 937.976 796.526Q965.969 754.64 985.25 708.097Q1004.53 661.556 1014.36 612.146Q1024.19 562.738 1024.19 512.36Q1024.19 461.982 1014.36 412.574Q1004.53 363.165 985.25 316.623Q965.969 270.08 937.976 228.195Q909.983 186.308 874.355 150.686Q838.727 115.064 796.832 87.0759Q754.939 59.0881 708.388 39.8099Q661.838 20.5312 612.42 10.7032Q563.003 0.875198 512.617 0.875198Z"/><path transform="scale(0.846829 0.846829)" d="M258.38 105.565C294.395 116.261 339.73 114.83 374.966 101.558C391.761 95.2311 407.627 86.3146 423.812 78.6602C454.073 64.128 487.236 56.6425 520.807 56.7639C543.612 57.0481 562.796 62.1154 584.542 68.9812C593.752 71.8883 604.85 76.0004 614.088 78.0856C620.334 79.4964 632.326 78.2427 639.271 78.8005C663.292 80.7311 687.464 87.6813 708.727 98.9982C739.074 115.15 766.735 137.263 790.491 161.986C806.87 179.03 822.579 198.343 842.473 211.477C858.384 221.983 878.405 224.031 896.314 229.702C908.958 233.706 916.534 237.893 927.225 245.202C921.061 245.316 914.016 245.178 908.092 246.67C917.528 253.203 925.24 253.564 934.476 258.21C929.251 259.269 923.922 260.015 918.82 261.091C932.056 268.388 950.144 275.84 964.61 280.9C949.874 278.391 943.765 278.347 929.843 283.255C935.428 294.401 938.369 302.525 941.894 314.49C945.631 327.176 958.554 338.875 970.341 344.427C963.958 343.558 958.19 342.943 951.972 341.217L951.214 341.012C961.475 364.87 969.475 392.33 998.055 398.973C992.571 401.231 987.038 403.335 981.323 404.951C990.512 413.979 995.897 418.456 1008.13 423.073C999.284 425.103 994.836 425.304 985.884 425.508C996.537 445.326 1006.83 458.552 1012.84 480.598L999.396 478.137C1002.5 489.103 1005.87 498.656 1016.39 504.511C1022.32 500.865 1024.6 499.232 1028.44 493.258C1026.36 509.901 1023.46 515.216 1010.29 525.442C1008.99 526.455 1007.68 527.457 1006.37 528.452C1011.21 543.687 1016.32 547.056 1029.06 556.223C1008.79 563.303 998.42 555.986 979.568 547.177C982.81 569.052 1003.45 591.714 1022.43 602.156C1006.74 597.163 992.971 591.306 978.099 584.168C974.978 582.67 969.615 580.351 966.249 581.445C959.265 588.387 970.141 625.377 973.617 634.442C955.069 609.478 939.881 580.395 940.215 636.725C937.607 634.038 934.474 630.568 930.462 630.424C927.755 630.328 925.193 631.855 923.372 633.755C904.771 653.171 920.028 730.376 901.329 761.84C898.254 767.012 893.87 771.356 887.522 771.576C875.391 771.997 863.318 761.017 855.018 753.329C853.905 758.279 850.718 771.687 848.41 775.849C848.294 777.941 850.236 787.606 850.748 790.566C854.369 811.5 855.259 832.586 868.316 850.252C854.525 845.946 850.804 843.735 838.773 836.267C828.442 885.079 820.14 904.825 773.004 927.692C783.542 912.634 782.289 903.1 780.378 885.473C776.097 892.352 771.656 899.624 767.066 906.259C747.112 935.103 708.628 951.137 674.594 956.53C681.929 946.896 687.729 933.656 689.946 921.743C684.916 928.106 677.261 934.722 671.044 939.976C642.602 964.015 617.324 971.587 582.16 979.413C591.71 969.869 593.752 960.904 596.015 947.978C578.447 960.331 561.325 972.731 542.303 982.843C511.166 999.397 476.277 1009.12 441.901 1016.38C441.667 996.076 431.583 981.814 415.765 970.012C415.611 981.127 413.822 986.351 409.308 996.158C400.877 986.924 398.075 977.467 388.029 968.303C366.332 948.514 340.907 945.336 317.54 926.696C320.232 941.653 325.807 950.705 331.903 964.469C321.552 959.895 309.797 956.138 299.14 951.772C271.5 940.448 246.122 923.269 228.956 898.412C222.03 888.384 217.549 877.976 210.937 867.661C207.884 881.305 208.698 892.445 213.132 905.802C186.227 884.802 165.606 840.961 155.909 808.8C152.702 798.161 150.595 787.806 147.766 777.12C140.816 788.127 136.541 802.278 135.671 815.226C126.024 791.385 121.584 766.687 125.343 741.087C118.035 748.709 113.208 756.167 109.808 766.149C104.716 722.831 107.689 707.083 131.618 669.962C120.832 672.577 115.801 673.539 106.482 679.808C112.998 668.676 120.593 657.108 129.586 647.902C146.463 630.629 166.611 617.959 182.078 599.221C185.218 595.418 188.869 591.663 191.215 587.258C180.235 596.207 171.737 610.155 157.668 616.958C158.192 614.836 159.808 608.886 159.806 607.057C154.206 610.964 148.676 615.21 142.842 618.751C137.292 622.121 130.632 625.221 124.017 623.398C121.407 622.678 119.578 620.764 118.374 618.398C110.59 603.113 124.715 552.482 128.783 535.808C130.975 526.82 132.742 517.617 135.402 508.762L120.154 522.523C130.576 505.698 141.093 481.415 130.783 462.494C120.292 443.242 96.2068 456.494 83.5445 463.768C89.9063 458.799 127.039 426.548 114.171 419.396C109.487 419.336 105.479 422.055 101.332 424.3C107.368 411.89 128.419 390.727 97.5146 396.286C109.658 383.918 95.751 379.786 85.5059 377.715C80.2767 376.657 74.7387 375.207 69.5238 373.955C76.476 373.904 88.2468 371.453 95.5023 370.18C67.2582 366.262 52.3299 362.825 27.6552 348.949C41.4492 348.91 56.2007 346.018 68.749 340.232C61.4159 339.314 52.3863 337.365 44.995 335.957C60.5804 332.056 74.2138 323.899 88.4045 316.58C113.358 303.711 140.362 288.627 161.689 270.117C157.997 270.069 152.897 269.431 149.121 269.069C173.693 259.823 179.173 256.763 195.823 236.573C182.844 244.876 169.485 251.358 154.264 254.477C146.512 256.066 139.018 256.877 131.228 258.652C155.331 248.892 174.472 233.056 192.79 215.087C199.061 208.935 205.416 203.51 211.312 196.83C204.517 198.012 200.468 198.783 193.929 201.03L194.311 198.57C210.813 185.734 219.844 189.721 232.439 170.591C222.29 168.702 215.917 168.946 206.045 172.901C212.418 167.195 216.905 163.323 224.366 158.721C230.99 154.636 238.636 151.051 245.103 146.967C232.436 143.732 226.584 140.898 216.199 133.357C233.5 139.375 244.937 136.563 262.229 132.37C252.77 125.365 246.058 120.707 240.229 110.143C252.677 115.589 258.624 117.098 271.782 119.069C266.999 114.889 262.741 110.189 258.38 105.565ZM755.325 615.265C756.505 617.901 757.424 620.513 759.336 622.622C759.598 620.762 757.144 616.815 756.095 614.964L755.325 615.265Z"/><path fill="#66676D" fill-opacity="0.98823529" transform="scale(0.846829 0.846829)" d="M756.095 614.964C757.144 616.815 759.598 620.762 759.336 622.622C757.424 620.513 756.505 617.901 755.325 615.265L756.095 614.964Z"/><path transform="scale(0.846829 0.846829)" d="M235.201 482.937C276.233 467.624 327.532 455.377 371.493 455.82C368.505 462.355 365.648 468.949 362.927 475.6C334.513 484.727 299.584 496.082 275.708 514.768C307.795 498.405 324.605 492.325 359.079 484.484C357.571 489.337 355.961 495.09 353.962 499.684C339.78 508.852 322.015 514.894 306.869 521.914C280.993 533.909 264.583 549.894 244.92 569.809C239.591 575.207 230.678 580.116 224.79 585.169C213.854 593.913 202.66 605.866 194.728 617.357L195.498 618.692C209.18 601.602 222.804 590.365 240.641 577.985C241.734 576.817 242.54 576.902 244.15 576.676C255.826 565.084 283.996 553.401 299.455 546.975C300.954 546.033 301.37 546.111 303.128 545.68C306.129 544.792 311.354 542.299 314.871 541.01C324.307 537.603 333.866 534.548 343.53 531.853C337.821 539.094 333.509 545.31 329.951 553.987C335.702 546.677 340.404 541.402 346.968 534.726C345.63 544.221 344.466 553.266 344.269 562.873C291.57 589.371 250.352 612.628 219.836 665.881L221.417 667.176C246.674 622.227 288.405 594.359 334.806 574.138C338.06 572.72 341.547 571.035 344.76 569.48C345.341 574.651 345.861 580.717 346.898 585.745C319.336 608.72 298.425 632.175 286.566 666.842C283.764 675.035 281.404 682.631 280.61 691.35C280.524 692.284 280.452 693.22 280.393 694.156C283.108 685.036 285.432 675.864 288.832 666.989C300.854 635.603 322.758 611.997 347.469 589.948C350.097 605.082 352.275 610.31 359.999 623.505C352.775 638.812 347.055 651.848 347.166 669.224C350.798 653.626 354.362 640.174 362.284 626.017C371.617 634.017 381.885 640.661 395.115 639.189C424.275 635.944 443.883 611.524 467.613 596.53C486.304 585.431 512.338 571.024 534.53 574.115C537.478 574.526 541.704 578.408 544.12 580.156C558.284 590.395 565.435 599.689 574.647 614.375C590.917 640.318 605.181 689.504 643.113 687.589C649.43 687.11 654.779 685.392 660.599 683.278C662.919 708.525 662.426 714.3 657.04 738.966C664.346 724.37 666.088 697.977 663.159 681.784C673.357 674.014 677.265 670.052 686.323 660.816C699.644 685.198 709.238 719.476 709.688 747.453C711.623 750.188 709.036 758.074 711.124 761.466C714.094 736.576 709.522 706.632 700.54 683.375C697.129 674.544 692.535 666.253 689.245 656.98C692.614 652.286 695.109 648.264 698.105 643.36C728.362 673.344 756.657 712.918 767.676 754.498C771.318 768.243 771.958 777.428 774.135 790.872C775.001 781.78 772.901 767.252 770.958 758.218C760.037 707.425 732.211 676.994 701.176 638.609C706.137 628.704 708.338 622.592 710.605 611.898C720.847 621.974 735.585 643.792 742.704 656.28L744.189 655.248C734.795 637.632 728.127 625.892 715.994 609.678C734.3 624.33 779.177 665.989 784.586 687.902L785.841 685.617C786.791 686.203 786.381 685.795 786.757 687.202C799.789 704.04 810.35 732.445 815.918 752.678L816.998 751.717C812.034 732.885 807.101 715.708 797.859 698.412C794.138 691.448 788.644 684.218 785.216 677.276C780.606 667.938 777.865 657.733 773.169 648.201C759.675 620.809 738.24 600.2 716.914 578.991C717.381 574.258 717.594 569.837 717.817 565.1C735.472 581.841 743.14 594.795 755.325 615.265C756.505 617.901 757.424 620.513 759.336 622.622C759.598 620.762 757.144 616.815 756.095 614.964C748.044 595.406 731.927 569.074 716.446 554.51C738.025 564.981 750.956 581.305 769.142 596.097C773.635 599.753 778.256 603.021 783.831 604.718C768.06 594.373 762.307 586.539 749.03 573.712C738.416 563.582 727.68 553.581 716.826 543.711C716.208 534.849 715.473 525.995 714.62 517.153C746.909 529.443 787.917 557.376 814.459 579.788C805.427 641.56 803.645 706.363 838.437 761.792C841.514 766.695 845.938 770.281 848.41 775.849C848.294 777.941 850.236 787.606 850.748 790.566C854.369 811.5 855.259 832.586 868.316 850.252C854.525 845.946 850.804 843.735 838.773 836.267C828.442 885.079 820.14 904.825 773.004 927.692C783.542 912.634 782.289 903.1 780.378 885.473C776.097 892.352 771.656 899.624 767.066 906.259C747.112 935.103 708.628 951.137 674.594 956.53C681.929 946.896 687.729 933.656 689.946 921.743C684.916 928.106 677.261 934.722 671.044 939.976C642.602 964.015 617.324 971.587 582.16 979.413C591.71 969.869 593.752 960.904 596.015 947.978C578.447 960.331 561.325 972.731 542.303 982.843C511.166 999.397 476.277 1009.12 441.901 1016.38C441.667 996.076 431.583 981.814 415.765 970.012C415.611 981.127 413.822 986.351 409.308 996.158C400.877 986.924 398.075 977.467 388.029 968.303C366.332 948.514 340.907 945.336 317.54 926.696C320.232 941.653 325.807 950.705 331.903 964.469C321.552 959.895 309.797 956.138 299.14 951.772C271.5 940.448 246.122 923.269 228.956 898.412C222.03 888.384 217.549 877.976 210.937 867.661C207.884 881.305 208.698 892.445 213.132 905.802C186.227 884.802 165.606 840.961 155.909 808.8C152.702 798.161 150.595 787.806 147.766 777.12C140.816 788.127 136.541 802.278 135.671 815.226C126.024 791.385 121.584 766.687 125.343 741.087C118.035 748.709 113.208 756.167 109.808 766.149C104.716 722.831 107.689 707.083 131.618 669.962C120.832 672.577 115.801 673.539 106.482 679.808C112.998 668.676 120.593 657.108 129.586 647.902C146.463 630.629 166.611 617.959 182.078 599.221C185.218 595.418 188.869 591.663 191.215 587.258C216.43 554.209 225.162 522.691 235.201 482.937Z"/><path fill="#B0B1B2" transform="scale(0.846829 0.846829)" d="M240.641 577.985C241.734 576.817 242.54 576.902 244.15 576.676C234.282 590.686 229.287 601.686 220.919 614.721C223.226 607.997 240.641 577.983 240.641 577.985Z"/><path fill="#DADBDC" transform="scale(0.846829 0.846829)" d="M784.586 687.902L785.841 685.617C786.791 686.203 786.381 685.795 786.757 687.202C787.729 696.149 791.002 710.42 790.044 719.07C788.707 708.647 786.57 698.23 784.586 687.902Z"/><path fill="#DADBDC" transform="scale(0.846829 0.846829)" d="M179.949 639.501C184.683 630.279 188.472 625.452 194.728 617.357L195.498 618.692C190.686 625.42 185.192 632.779 180.727 639.658L179.949 639.501Z"/><path fill="#B0B1B2" transform="scale(0.846829 0.846829)" d="M212.485 682.047C214.444 676.108 216.8 671.311 219.836 665.881L221.417 667.176C219.311 671.051 214.896 678.736 213.36 682.458L212.485 682.047Z"/><path fill="#DADBDC" transform="scale(0.846829 0.846829)" d="M709.688 747.453C711.623 750.188 709.036 758.074 711.124 761.466C710.956 766.042 710.137 769.808 708.862 774.162C709.081 765.087 709.612 756.895 709.688 747.453Z"/><path fill="#B0B1B2" transform="scale(0.846829 0.846829)" d="M744.189 655.248C747.37 660.813 748.566 664.448 750.367 670.626C747.426 665.603 745.009 661.645 742.704 656.28L744.189 655.248Z"/><path fill="#B0B1B2" transform="scale(0.846829 0.846829)" d="M299.455 546.975C300.954 546.033 301.37 546.111 303.128 545.68C300.258 549.972 294.998 558.239 291.93 561.777C293.09 559.395 299.081 548.701 299.455 546.975Z"/><path fill="#B0B1B2" transform="scale(0.846829 0.846829)" d="M816.998 751.717C818.2 757.275 819.564 763.213 819.744 768.89L819.295 769.682L818.366 768.556C818.497 764.62 816.784 756.793 815.918 752.678L816.998 751.717Z"/><path fill="#414143" transform="scale(0.846829 0.846829)" d="M180.727 639.658C179.232 642.604 177.642 646.223 175.485 648.651L175.049 648.375L175.641 648.61L175.178 647.807C175.899 645.714 178.701 641.407 179.949 639.501L180.727 639.658Z"/><path fill="#414143" transform="scale(0.846829 0.846829)" d="M818.366 768.556L819.295 769.682L819.744 768.89C820.51 770.411 820.581 773.435 819.718 774.992C818.454 773.617 818.539 770.596 818.366 768.556Z"/><path fill="#414143" transform="scale(0.846829 0.846829)" d="M213.36 682.458C212.657 684.374 211.86 687.26 210.478 688.583C210.409 686.417 211.622 684.137 212.485 682.047L213.36 682.458Z"/><path fill="#FEFEFE" transform="scale(0.846829 0.846829)" d="M453.238 644.584C467.366 642.377 494.736 651.45 497.536 666.347C500.887 684.181 499.136 706.584 500.603 724.914C504.719 702.427 504.461 656.24 535.549 656.541C563.136 656.808 615.278 696.777 586.035 725.94C585.203 714.043 584.241 701.537 568.833 707.181C544.547 724.38 555.126 763.573 516.482 775.736C501.481 780.37 485.254 778.88 471.348 771.59C461.118 766.21 458.187 760.325 449.993 752.859C445.258 748.546 436.161 744.34 433.118 738.17C427.945 728.965 430.563 715.39 427.248 706.331C421.379 690.295 416.028 674.711 410.984 658.4C425.404 651.921 437.543 647.145 453.238 644.584Z"/><path fill="#FEFEFE" transform="scale(0.846829 0.846829)" d="M326.005 619.922C338.043 651.28 336.168 689.796 344.374 722.148C349.315 741.63 355.172 751.02 371.819 760.838C371.622 765.406 370.633 771.169 370.221 776.041C369.174 788.417 377.561 799.492 384.442 809.203C403.6 836.237 427.838 848.912 460.024 853.71C487.643 857.827 517.093 856.07 540.047 838.535C546.845 833.342 556.563 825.868 558.011 816.865C558.639 812.955 558.937 807.859 559.622 803.45C595.059 796.322 609.176 751.886 624.136 722.509L625.225 723.674C609.146 758.139 607.199 794.197 568.843 811.625C568.703 813.08 568.556 814.535 568.401 815.988C565.241 845.43 555.038 863.891 532.305 882.243C534.505 874.873 536.1 868.934 537.729 861.433C523.049 882.556 513.443 888.842 490.392 899.294C496.071 891.185 498.941 886.586 503.123 877.57C483.133 894.438 471.284 889.662 455.558 911.205C448.991 887.308 437.592 885.392 423.863 870.942L423.28 870.32C425.13 877.42 427.16 884.473 429.365 891.472C408.805 874.275 401.317 865.905 388.634 841.811C388.435 853.159 389.578 860.286 391.88 871.092C376.466 850.015 372.107 838.209 368.075 812.839C367.022 819.005 366.153 825.201 365.466 831.42C356.654 813.971 353.569 789.941 356.992 770.689C330.32 741.696 333.786 698.643 331.426 662.169C330.509 647.991 328.146 633.965 326.005 619.922Z"/><path fill="#FEFEFE" transform="scale(0.846829 0.846829)" d="M396.769 663.031C398.09 663.611 399.129 664.387 400.032 665.531C402.359 668.481 417.425 706.931 418.841 712.006C420.07 716.412 421.154 721.831 420.57 726.421C419.901 731.672 416.43 735.437 412.31 738.359C409.306 739.681 406.133 740.783 403.045 741.918C399.987 738.937 396.545 736.033 395.563 731.829C391.479 714.333 388.375 678.431 396.769 663.031Z"/><path fill="#FEFEFE" transform="scale(0.846829 0.846829)" d="M392.276 764.322C394.549 766.022 398.636 773.691 400.455 776.716C410.68 793.721 440.224 805.046 459.503 809.218C474.854 812.539 508.163 814.851 524.032 811.297C528.22 810.36 538.484 803.491 542.428 800.95L537.866 806.859C521.82 824.18 514.47 822.853 493.567 818.15C486.036 817.269 477.296 818.16 469.848 817.525C439.088 814.898 399.063 797.926 392.276 764.322Z"/><path fill="#FEFEFE" transform="scale(0.846829 0.846829)" d="M435.739 756.191C444.269 757.045 443.362 759.011 449.693 765.067C452.763 768.004 464.176 774.842 464.025 779.153C463.831 784.68 459.295 789.397 455.412 793.14C452.865 792.026 450.998 790.885 448.624 789.488C445.299 786.447 446.496 777.868 446.749 773.548C443.607 779.321 437.043 789.292 429.808 780.108C427.063 776.625 426.753 769.574 427.781 765.363C428.985 760.433 431.579 758.616 435.739 756.191Z"/><path fill="#FEFEFE" transform="scale(0.846829 0.846829)" d="M572.712 711.388C573.784 711.67 574.949 711.959 575.839 712.553C576.945 713.289 577.883 715.545 577.908 716.797C578.22 732.795 555.684 765.19 546.213 776.435L544.293 777.703L543.247 777.396C539.939 771.274 550.963 754.777 553.192 748.564C558.743 733.084 560.712 723.324 572.712 711.388Z"/><path fill="#FEFEFE" transform="scale(0.846829 0.846829)" d="M411.647 744.917C421.429 744.536 423.893 750.204 427.42 758.168C426.314 763.317 424.471 768.191 422.561 773.078C414.179 782.199 403.306 753.059 411.647 744.917Z"/><path fill="#FEFEFE" transform="scale(0.846829 0.846829)" d="M534.017 775.786L535.187 776.773C537.781 782.787 530.779 789.936 526.489 793.63C522.783 796.822 520.435 798.111 515.491 797.65C506.624 784.507 518.829 784.16 528.16 779.589C530.04 778.668 532.274 777.023 534.017 775.786Z"/><path fill="#FEFEFE" transform="scale(0.846829 0.846829)" d="M468.174 778.574C472.682 781.205 478.258 783.385 483.147 785.229C481.657 789.664 481.132 791.531 478.82 795.546C476.606 797.68 475.086 798.667 472.028 798.71C465.134 796.151 467.067 784.091 468.174 778.574Z"/><path fill="#FEFEFE" transform="scale(0.846829 0.846829)" d="M489.19 786.47C494.133 786.427 503.384 784.85 504.538 790.737C503.894 793.456 503 794.429 501.44 796.726C489.7 805.127 488.688 796.143 489.19 786.47Z"/><path fill="#B0B1B2" transform="scale(0.846829 0.846829)" d="M630.832 711.341C629.018 715.615 627.393 719.55 625.225 723.674L624.136 722.509C626.352 718.048 627.9 715.422 630.832 711.341Z"/><path fill="#FEFEFE" transform="scale(0.846829 0.846829)" d="M249.647 265.416C260.998 241.141 305.285 192.989 326.574 176.99C294.603 223.157 271.547 274.893 258.592 329.533C265.277 322.288 268.809 318.217 276.527 312.102C271.961 321.01 267.24 329.969 263.671 339.327C251.029 372.465 246.526 408.162 241.642 443.105C240.003 454.838 236.579 467.98 235.765 479.585C282.552 461.934 323.206 451.384 373.687 451.712C377.188 443.807 380.806 435.642 385.257 428.214C382.864 436.271 380.154 444.041 377.418 451.98C384.366 452.817 392.324 454.141 399.118 455.843C391.52 456.008 383.885 455.515 376.309 454.887L362.72 500.055C378.564 496.995 398.3 492.454 414.172 493.554C394.525 497.237 381.262 499.133 361.777 505.4C360.142 511.63 358.65 518.047 358.28 524.497C367.943 522.496 373.2 521.599 383.289 521.116C375.056 524.146 366.366 525.176 357.88 527.162C355.349 537.457 355.042 548.82 355.004 559.425C375.455 550.836 392.691 541.062 412.234 532.221C400.482 543.054 369.831 555.334 354.893 563.954C355.352 568.688 356.049 574.322 356.305 579.001C363.73 574.39 371.431 569.38 379.339 565.74C372.648 572.244 363.705 577.482 356.977 583.705C359.701 595.563 360.683 600.848 367.315 611.285C383.193 591.213 398.018 572.863 421.996 561.579C405.276 577.796 380.929 594.375 369.945 614.689C377.452 621.339 384.519 625.311 394.948 624.582C422.04 622.436 442.539 601.114 464.151 587.012C479.444 577.033 494.249 569.395 511.64 564.008C528.81 558.689 537.572 558.056 551.599 570.617C562.978 580.81 572.83 591.626 581.101 604.574C595.988 627.479 609.98 677.339 644.075 676.066C649.557 675.862 653.504 674.44 658.395 672.336C655.233 661.404 652.693 653.246 648.166 642.779C643.064 630.984 636.564 619.023 631.826 607.204C644.266 623.244 659.153 650.43 661.15 670.636C669.272 665.461 676.087 660.154 681.333 651.853C677.578 644.429 672.784 636.73 669.437 629.411C676.296 636.672 678.112 640.575 683.26 648.811C686.076 644.315 689.216 639.513 691.829 634.933C681.792 622.978 658.908 597.001 651.915 585.197C658.351 591.263 665.281 599.879 671.273 606.542C678.711 614.815 686.404 623.084 693.464 631.65C697.794 621.11 700.788 612.25 704.03 601.325C696.434 595.234 688.487 589.773 680.914 583.706C689.448 587.514 697.649 592.026 705.433 597.194C706.579 591.224 707.824 585.274 709.171 579.347C694.76 566.657 681.002 559.19 666.52 548.004C683.38 555.07 694.372 562.806 709.265 573.596C712.452 556.378 711.988 533.432 711.891 515.899C705.85 513.665 696.581 510.507 691.181 507.619C698.499 508.917 704.871 510.011 712.024 512.184C711.797 508.899 711.358 504.644 711.701 501.46C712.505 505.127 713.235 508.81 713.891 512.506C757.838 531.314 778.306 545.632 815.146 576.248C816.554 563.929 818.58 546.9 821.303 535.018C831.209 491.803 835.82 462.379 827.276 418.745C831.818 423.524 836.824 434.641 839.585 440.765C840.045 425.292 840.447 409.822 841.036 394.338C842.561 354.247 839.237 311.058 827.251 272.787C845.123 301.117 860.573 343.658 868.311 376.327C864.737 371.356 861.223 362.246 858.377 356.521C855.382 350.493 853.054 346.87 849.341 341.375C852.419 358.427 854.731 375.469 857.561 392.541C859.206 402.471 863.353 413.32 867.011 422.734C862.649 418.124 857.633 410.754 853.994 405.424C855.554 415.848 859.192 457.04 854.851 464.991C853.956 453.037 852.757 436.609 849.744 425.064C845.775 481.39 833.459 528.687 824.7 583.947C835.685 594.764 851.655 610.142 861.004 621.998L859.863 622.54C846.657 608.438 838.797 600.445 824.246 587.765C818.887 641.746 814.009 701.532 850.287 747.855C851.478 749.375 853.736 752.09 855.018 753.329C853.905 758.279 850.718 771.687 848.41 775.849C845.938 770.281 841.514 766.695 838.437 761.792C803.645 706.363 805.427 641.56 814.459 579.788C787.917 557.376 746.909 529.443 714.62 517.153C715.473 525.995 716.208 534.849 716.826 543.711C727.68 553.581 738.416 563.582 749.03 573.712C762.307 586.539 768.06 594.373 783.831 604.718C778.256 603.021 773.635 599.753 769.142 596.097C750.956 581.305 738.025 564.981 716.446 554.51C731.927 569.074 748.044 595.406 756.095 614.964L755.325 615.265C743.14 594.795 735.472 581.841 717.817 565.1C717.594 569.837 717.381 574.258 716.914 578.991C738.24 600.2 759.675 620.809 773.169 648.201C777.865 657.733 780.606 667.938 785.216 677.276C788.644 684.218 794.138 691.448 797.859 698.412C807.101 715.708 812.034 732.885 816.998 751.717L815.918 752.678C810.35 732.445 799.789 704.04 786.757 687.202C786.381 685.795 786.791 686.203 785.841 685.617L784.586 687.902C779.177 665.989 734.3 624.33 715.994 609.678C728.127 625.892 734.795 637.632 744.189 655.248L742.704 656.28C735.585 643.792 720.847 621.974 710.605 611.898C708.338 622.592 706.137 628.704 701.176 638.609C732.211 676.994 760.037 707.425 770.958 758.218C772.901 767.252 775.001 781.78 774.135 790.872C771.958 777.428 771.318 768.243 767.676 754.498C756.657 712.918 728.362 673.344 698.105 643.36C695.109 648.264 692.614 652.286 689.245 656.98C692.535 666.253 697.129 674.544 700.54 683.375C709.522 706.632 714.094 736.576 711.124 761.466C709.036 758.074 711.623 750.188 709.688 747.453C709.238 719.476 699.644 685.198 686.323 660.816C677.265 670.052 673.357 674.014 663.159 681.784C666.088 697.977 664.346 724.37 657.04 738.966C662.426 714.3 662.919 708.525 660.599 683.278C654.779 685.392 649.43 687.11 643.113 687.589C605.181 689.504 590.917 640.318 574.647 614.375C565.435 599.689 558.284 590.395 544.12 580.156C541.704 578.408 537.478 574.526 534.53 574.115C512.338 571.024 486.304 585.431 467.613 596.53C443.883 611.524 424.275 635.944 395.115 639.189C381.885 640.661 371.617 634.017 362.284 626.017C354.362 640.174 350.798 653.626 347.166 669.224C347.055 651.848 352.775 638.812 359.999 623.505C352.275 610.31 350.097 605.082 347.469 589.948C322.758 611.997 300.854 635.603 288.832 666.989C285.432 675.864 283.108 685.036 280.393 694.156C280.452 693.22 280.524 692.284 280.61 691.35C281.404 682.631 283.764 675.035 286.566 666.842C298.425 632.175 319.336 608.72 346.898 585.745C345.861 580.717 345.341 574.651 344.76 569.48C341.547 571.035 338.06 572.72 334.806 574.138C288.405 594.359 246.674 622.227 221.417 667.176L219.836 665.881C250.352 612.628 291.57 589.371 344.269 562.873C344.466 553.266 345.63 544.221 346.968 534.726C340.404 541.402 335.702 546.677 329.951 553.987C333.509 545.31 337.821 539.094 343.53 531.853C333.866 534.548 324.307 537.603 314.871 541.01C311.354 542.299 306.129 544.792 303.128 545.68C301.37 546.111 300.954 546.033 299.455 546.975C283.996 553.401 255.826 565.084 244.15 576.676C242.54 576.902 241.734 576.817 240.641 577.985C222.804 590.365 209.18 601.602 195.498 618.692L194.728 617.357C202.66 605.866 213.854 593.913 224.79 585.169C230.678 580.116 239.591 575.207 244.92 569.809C264.583 549.894 280.993 533.909 306.869 521.914C322.015 514.894 339.78 508.852 353.962 499.684C355.961 495.09 357.571 489.337 359.079 484.484C324.605 492.325 307.795 498.405 275.708 514.768C299.584 496.082 334.513 484.727 362.927 475.6C365.648 468.949 368.505 462.355 371.493 455.82C327.532 455.377 276.233 467.624 235.201 482.937C225.162 522.691 216.43 554.209 191.215 587.258C180.235 596.207 171.737 610.155 157.668 616.958C158.192 614.836 159.808 608.886 159.806 607.057C165.688 601.33 173.276 594.182 178.354 587.883C200.463 560.462 214.589 522.975 221.073 488.636L220.998 486.308C226.102 476.266 230.48 437.368 232.392 424.345C235.491 402.446 238.936 380.597 242.727 358.806C246.127 340.241 250.782 326.559 255.258 308.745C245.968 321.943 242.624 332.099 235.476 346.059C238.535 329.786 249.475 305.636 256.913 290.799L239.472 302.945C246.212 294.41 254.937 283.952 260.487 274.874C268.551 261.686 275.169 246.924 282.678 233.313C267.333 246.108 262.398 250.349 249.647 265.416Z"/><path transform="scale(0.846829 0.846829)" d="M717.014 585.981C733.615 595.585 761.397 632.719 770.673 650.169C772.133 652.916 777.602 663.129 776.898 665.546L775.665 664.423C759.885 643.273 734.255 618.547 713.243 602.704C714.64 598.278 716.007 590.726 717.014 585.981Z"/><path transform="scale(0.846829 0.846829)" d="M322.682 518.906L323.124 519.677C319.404 523.821 307.975 537.143 303.855 539.469C288.573 548.094 271.537 554.095 256.192 563.391L255.864 562.697C276.056 541.822 297.21 531.047 322.682 518.906Z"/><path transform="scale(0.846829 0.846829)" d="M349.486 509.39C350.404 509.226 349.888 509.228 351.025 509.549C351.458 511.919 348.552 523.732 347.814 527.018C332.523 530.772 325.366 532.682 310.519 538.116L309.525 538.256L309.376 537.566C320.007 524.55 333.971 515.47 349.486 509.39Z"/><path fill="#DADBDC" transform="scale(0.846829 0.846829)" d="M172.702 511.764C182.71 504.363 209.263 489.663 220.998 486.308L221.073 488.636C203.127 495.921 189.985 503.159 172.702 511.764Z"/><path fill="#414143" transform="scale(0.846829 0.846829)" d="M868.038 630.064C871.314 633.43 873.307 636.405 875.645 640.503C872.716 638.463 869.073 633.728 867.043 630.739L868.038 630.064Z"/><path fill="#B0B1B2" transform="scale(0.846829 0.846829)" d="M861.004 621.998C863.482 624.723 865.705 627.217 868.038 630.064L867.043 630.739C864.692 627.969 862.299 625.235 859.863 622.54L861.004 621.998Z"/><path fill="#FEFEFE" transform="scale(0.846829 0.846829)" d="M543.413 307.419C555.801 306.725 570.032 312.152 582.215 314.721C595.017 317.421 608.818 319.344 621.101 323.785C628.779 326.528 636.003 330.4 642.538 335.273C666.626 353.23 690.027 401.443 671.362 430.173C661.214 445.792 629.584 441.744 626.936 421.938C625.8 413.448 636.615 407.91 641.143 402.235C651.606 390.875 635.033 377.78 623.716 380.34C591.729 387.574 583.699 431.799 612.324 449.72C631.451 461.693 641.607 456.274 661.417 450.391C662.934 449.94 664.35 450.13 665.499 451.002C666.289 456.674 660.429 465.424 656.585 469.347C650.973 475.078 643.914 478 637.249 482.134C628.597 487.498 620.891 495.327 610.803 497.977C600.602 500.642 589.619 497.93 579.559 501.501C570.303 504.788 560.374 511.478 551.925 516.694C557.382 494.458 561.784 470.673 565.866 448.125C567.241 436.389 569.71 427.058 570.488 414.648C568.918 417.401 566.509 421.864 565.629 424.844C557.012 453.995 552.152 484.049 543.039 513.132C536.361 502.709 528.455 488.1 516.938 483.523C497.606 475.839 491.387 465.168 479.789 448.648C474.131 440.589 452.867 416.785 461.682 406.408C464.802 406.272 474.041 414.658 477.214 417.057C489.101 425.948 505.012 429.153 519.485 427C541.75 423.688 553.732 404.496 549.628 382.919C548.081 375.06 545.259 366.488 538.437 361.61C530.717 356.09 515.64 356.072 509.987 364.409C505.247 371.4 510.994 381.245 512.463 388.703C514.093 400.375 508.581 403.128 498.735 405.228C481.12 408.985 464.771 395.414 462.316 378.188C460.833 367.795 467.854 350.34 475.211 342.208C493.837 321.619 515.458 310.207 543.413 307.419Z"/><path fill="#FEFEFE" transform="scale(0.846829 0.846829)" d="M456.383 123.94C469.048 125.538 485.129 131.453 494.011 140.886C507.4 155.111 508.211 170.816 507.996 188.961C517.778 178.748 515.875 177.925 521.359 166.672L521.548 166.291C521.865 185.332 519.543 192.51 512.116 209.754C517.787 204.234 522.181 198.469 526.953 192.221C513.761 250.726 479.876 258.319 441.37 294.962C410.923 323.937 394.372 358.058 356.923 381.958C372.236 359.833 371.818 355.801 379.72 330.977C369.484 334.556 365.783 334.839 355.088 334.103C358.286 329.3 360.216 325.713 362.354 320.401L362.029 319.629C360.543 318.912 356.021 319.204 354.144 319.175C347.559 319.068 343.492 318.233 337.408 315.913C339.12 314.714 340.795 313.862 341.553 311.963C340.205 309.994 328.852 310.591 323.738 308.412C332.049 305.449 334.391 304.053 340.78 297.889C334.118 299.094 328.887 299.042 322.195 299.055C330.194 288.564 334.362 282.712 338.254 270.165C326.062 274.963 321.358 276.079 308.367 276.288C321.609 263.88 327.13 254.686 335.232 238.453C340.292 228.317 348.542 217.692 356.114 209.366C348.482 212.566 341.533 216.143 334.162 219.87C352.695 195.425 380.236 182.031 410.704 182.176C396.893 176.842 390.695 176.328 376.085 176.288C397.736 163.699 412.355 161.037 436.594 165.032C428.835 152.732 425.649 149.381 413.121 141.674C438.626 133.551 451.13 133.548 475.444 143.42C470.264 135.523 463.451 130.024 456.383 123.94Z"/><path transform="scale(0.846829 0.846829)" d="M425.913 207.195C442.331 207.107 450.611 218.939 457.289 231.844C457.703 224.382 457.52 219.439 456.557 212.042C464.142 227.977 464.223 233.509 463.282 250.941C466.842 249.397 470.902 247.3 474.438 245.584C463.979 267.469 449.067 280.298 427.904 290.778C432.995 284.971 436.754 280.531 441.329 274.319C438.254 275.332 435.201 276.504 432.161 277.631C416.853 283.324 394.117 289.093 381.259 276.556C368.728 264.338 370.694 265.631 352.504 264.815C387.824 242.427 390.277 208.269 439.541 219.144C435.273 214.135 431.069 211.21 425.913 207.195Z"/><path fill="#FEFEFE" transform="scale(0.846829 0.846829)" d="M428.545 233.416C428.86 233.414 429.175 233.415 429.492 233.419C437.848 233.549 446.416 239.497 436.353 246.248C435.893 246.27 435.434 246.288 434.975 246.304C424.598 246.633 419.352 241.358 428.545 233.416Z"/><path fill="#FEFEFE" transform="scale(0.846829 0.846829)" d="M383.639 256.323C385.293 257.763 389.366 270.459 392.161 272.752C392.166 273.292 392.17 273.832 392.176 274.372C384.209 270.515 380.258 265.082 383.639 256.323Z"/><path fill="#FEFEFE" transform="scale(0.846829 0.846829)" d="M713.995 185.463C721.882 184.56 729.432 185.583 737.167 186.984C725.657 191.531 722.87 191.019 712.138 198.151C737.384 196.879 750.31 204.342 769.223 219.541C754.644 222.161 751.849 223.95 740.009 232.436C766.037 237.63 774.419 244.688 792.457 263.947C779.229 258.773 774.098 257.296 760.087 257.042C789.422 271.696 803.828 288.32 814.747 319.671C809.092 312.68 804.3 307.854 797.734 301.81C803.997 318.14 807.013 331.845 809.305 349.202C810.633 359.255 815.291 371.187 819.423 380.503C806.869 374.839 801.651 371.161 791.897 362.032C792.237 376.166 794.683 382.595 799.351 395.828C795.597 393.509 788.17 386.957 786.409 386.481L785.847 387.366C786.159 392.75 789.398 398.783 791.717 403.737C786.791 402.186 783.836 400.719 779.335 398.253C777.847 397.426 777.889 397.269 776.234 397.343L775.789 398.363C776.817 402.447 778.626 404.564 781.383 407.526C768.987 407.643 766.408 406.91 755.215 402.237C755.697 409.487 756.456 412.629 758.627 419.602C747.62 416.475 745.469 415.348 736.516 408.205C734.865 432.006 733.863 439.66 739.929 463.162C739.333 462.483 738.754 461.789 738.195 461.08C716.903 434.601 707.967 385.766 693.717 354.967C680.896 327.257 660.747 303.811 651.79 274.48C646.154 256.026 647.319 241.776 649.328 223.217C650.284 231.28 652.361 239.368 656.563 246.395C655.118 227.567 656.874 220.181 662.953 202.846C663.127 214.011 662.781 218.524 667.767 228.585C674.903 203.267 687.063 188.565 713.995 185.463Z"/><path transform="scale(0.846829 0.846829)" d="M703.376 272.104L703.519 272.186C703.812 273.548 699.298 285.643 698.54 287.819C710.546 273.266 718.377 273.12 736.124 275.01C728.381 276.959 725.865 277.386 719.129 281.332L719.888 281.459C752.692 286.983 758.6 303.253 769.561 332.063C772.065 338.643 778.82 348.427 783.102 354.431C778.011 352.918 772.39 351.492 767.236 350.091C764.084 351.065 760.312 353.037 757.264 354.508C733.493 364.473 716.362 347.588 699.289 333.108C701.374 341.78 703.127 345.422 707.053 353.221C689.604 338.119 680.669 314.976 678.298 292.45C680.865 296.172 683.985 299.601 686.953 303.025C690.823 290.131 693.336 281.365 703.376 272.104Z"/><path fill="#FEFEFE" transform="scale(0.846829 0.846829)" d="M715.695 296.971C724.524 298.173 732.494 303.44 722.757 311C722.214 310.949 721.67 310.891 721.129 310.824C711.351 309.6 705.826 303.882 715.695 296.971Z"/><path fill="#FEFEFE" transform="scale(0.846829 0.846829)" d="M757.349 336.069C764.196 342.423 750.015 348.906 745.355 350.392L744.451 349.883C744.965 347.969 752.225 343.344 754.019 340.913C755.306 339.17 756.138 338.018 757.349 336.069Z"/><path fill="#DADBDC" transform="scale(0.846829 0.846829)" d="M604.99 550.281C611.558 554.987 613.075 576.556 612.951 583.865C612.158 582.801 605.873 554.453 604.99 550.281Z"/><path fill="#DADBDC" transform="scale(0.846829 0.846829)" d="M478.567 516.491L478.916 516.818C478.77 518.364 475.293 521.849 474.075 523.125C467.843 529.652 463.516 536.147 458.503 543.589L457.892 543.01C460.601 533.481 471.181 522.653 478.567 516.491Z"/><path fill="#DADBDC" transform="scale(0.846829 0.846829)" d="M608.457 521.569C615.609 525.348 620.615 546.57 621.394 554.094C620.222 552.216 617.355 542.827 616.115 539.858C613.599 533.823 610.883 527.626 608.457 521.569Z"/><path fill="#FEFEFE" transform="scale(0.846829 0.846829)" d="M486.574 489.267C486.351 490.812 466.613 509.034 463.747 511.769L463.581 511.093C466.137 504.069 480.083 493.013 486.574 489.267Z"/><path fill="#DADBDC" transform="scale(0.846829 0.846829)" d="M473.693 546.306C473.53 548.436 468.35 554.58 466.831 556.896C463.533 561.927 460.986 566.72 458.147 572.004C456.222 565.59 468.682 550.059 473.693 546.306Z"/><path fill="#FEFEFE" transform="scale(0.846829 0.846829)" d="M597.618 580.019C603.154 585.271 603.132 602.49 601.954 609.297L601.884 609.298C602.33 609.783 597.979 582.574 597.618 580.019Z"/><path fill="#DADBDC" transform="scale(0.846829 0.846829)" d="M620.758 515.215C626.447 520.013 629.19 531.612 629.845 538.66C626.423 532.988 622.192 521.647 620.758 515.215Z"/><path fill="#FEFEFE" transform="scale(0.846829 0.846829)" d="M479.823 477.827L480.187 478.197C479.691 479.551 465.898 491.247 463.275 493.772L463.007 493.517C463.028 488.797 476.177 480.133 479.823 477.827Z"/><path fill="#FEFEFE" transform="scale(0.846829 0.846829)" d="M560.808 536.637C564.92 542.087 563.41 550.372 562.398 556.706L561.919 556.836C560.636 554.929 560.751 539.7 560.808 536.637Z"/><path fill="#DADBDC" transform="scale(0.846829 0.846829)" d="M523.286 526.565L523.55 526.848C524.127 529.196 517.566 541.187 516.123 544.04L515.686 543.951L515.377 543.075C516.382 536.183 519.096 531.92 523.286 526.565Z"/><path fill="#DADBDC" transform="scale(0.846829 0.846829)" d="M492.272 536.059C493.663 537.537 486.432 551.898 485.348 554.273L484.953 554.114C483.27 550.098 489.69 539.304 492.272 536.059Z"/><path fill="#FEFEFE" transform="scale(0.846829 0.846829)" d="M584.211 561.566C588.588 565.2 586.301 574.893 585.474 579.962L585.116 580.366C584.118 578.609 584.231 564.565 584.211 561.566Z"/><path fill="#FEFEFE" transform="scale(0.846829 0.846829)" d="M505.344 505.222C505.577 505.434 505.543 505.82 505.614 506.127C502.78 510.262 499.636 514.213 496.564 518.177C496.078 517.872 496.39 518.12 495.928 517.165C497.179 512.529 501.494 507.974 505.344 505.222Z"/><path fill="#FEFEFE" transform="scale(0.846829 0.846829)" d="M472.464 467.005L473.009 467.025L473.458 467.543C471.02 470 465.362 473.518 462.28 475.581L461.465 475.513L461.518 474.602C464.307 470.926 468.37 468.853 472.464 467.005Z"/><path fill="#FEFEFE" transform="scale(0.846829 0.846829)" d="M630.278 508.078C635.446 511.891 637.323 516.953 639.222 522.797C636.426 521.147 631.652 511.309 630.278 508.078Z"/><path fill="#FEFEFE" transform="scale(0.846829 0.846829)" d="M505.77 536.665L506.056 536.896C506.392 539.35 501.424 546.822 499.89 549.396C497.339 546.881 503.996 538.758 505.77 536.665Z"/><path fill="#FEFEFE" transform="scale(0.846829 0.846829)" d="M585.703 527.62C589.753 530.338 589.615 537.829 589.76 542.214C588.409 540.424 586.345 530.498 585.703 527.62Z"/><path fill="#DADBDC" transform="scale(0.846829 0.846829)" d="M519.567 510.593C519.352 513.185 514.455 519.073 512.634 521.463C511.605 518.234 517.174 512.455 519.567 510.593Z"/><path fill="#B0B1B2" transform="scale(0.846829 0.846829)" d="M594.058 519.974C598.047 522.586 597.795 525.113 598.014 529.41L597.376 529.115C595.4 526.515 594.666 523.135 594.058 519.974Z"/><path fill="#FEFEFE" transform="scale(0.846829 0.846829)" d="M571.472 526.469C574.379 529.194 574.151 534.863 574.323 538.68C572.592 537.249 571.762 528.97 571.472 526.469Z"/><path fill="#FEFEFE" transform="scale(0.846829 0.846829)" d="M573.506 556.763C575.179 560.517 574.477 565.315 574.165 569.399L573.7 569.011C572.56 565.178 573.1 560.692 573.506 556.763Z"/><path fill="#DADBDC" transform="scale(0.846829 0.846829)" d="M499.739 495.557L500.353 496.266C499.143 498.493 496.751 500.515 494.876 502.334L494.492 501.941L494.551 500.954C496.127 498.37 497.458 497.461 499.739 495.557Z"/><path transform="scale(0.846829 0.846829)" d="M184.822 204.464C188.128 202.237 190.775 200.398 194.311 198.57L193.929 201.03L184.822 204.464Z"/></g></svg>