<?xml version="1.0" encoding="utf-8" ?><svg xmlns="http://www.w3.org/2000/svg" xmlns:xlink="http://www.w3.org/1999/xlink" width="835" height="803" viewBox="0 0 835 803"><clipPath id="cl_4"><rect width="835.00006" height="802.99994"/></clipPath><g clip-path="url(#cl_4)"><path transform="scale(0.784774 0.784946)" d="M243.435 53.6022C281.689 64.9698 329.842 63.449 367.267 49.3431C385.107 42.6188 401.959 33.1424 419.15 25.0072C451.292 9.5625 486.517 1.60689 522.173 1.73584C546.396 2.03798 566.773 7.42346 589.87 14.7204C599.653 17.8101 611.441 22.1805 621.253 24.3966C627.887 25.896 640.625 24.5635 648.001 25.1564C673.515 27.2082 699.189 34.5949 721.775 46.6225C754.008 63.7891 783.388 87.2906 808.621 113.566C826.018 131.68 842.703 152.206 863.834 166.165C880.734 177.331 901.999 179.508 921.021 185.534C934.451 189.789 942.498 194.239 953.853 202.008C947.306 202.129 939.824 201.983 933.531 203.568C943.555 210.511 951.746 210.895 961.555 215.833C956.005 216.958 950.345 217.751 944.927 218.895C958.985 226.65 978.198 234.57 993.563 239.948C977.911 237.282 971.422 237.235 956.635 242.451C962.566 254.296 965.69 262.931 969.434 275.648C973.403 289.13 987.131 301.564 999.65 307.464C992.87 306.541 986.744 305.887 980.139 304.053L979.334 303.834C990.233 329.191 998.73 358.376 1029.09 365.436C1023.26 367.836 1017.39 370.072 1011.31 371.789C1021.07 381.384 1026.79 386.142 1039.79 391.049C1030.39 393.207 1025.67 393.42 1016.16 393.637C1027.47 414.699 1038.41 428.756 1044.79 452.187L1030.51 449.571C1033.81 461.226 1037.38 471.379 1048.56 477.601C1054.86 473.726 1057.29 471.99 1061.36 465.642C1059.15 483.33 1056.08 488.979 1042.08 499.847C1040.7 500.923 1039.31 501.989 1037.92 503.046C1043.06 519.237 1048.48 522.818 1062.02 532.561C1040.49 540.085 1029.47 532.309 1009.45 522.947C1012.89 546.195 1034.82 570.281 1054.98 581.378C1038.31 576.072 1023.69 569.847 1007.89 562.261C1004.58 560.669 998.879 558.204 995.304 559.367C987.885 566.745 999.437 606.058 1003.13 615.692C983.428 589.16 967.296 558.251 967.651 618.118C964.881 615.262 961.553 611.574 957.292 611.422C954.417 611.319 951.695 612.942 949.762 614.961C930.004 635.597 946.209 717.651 926.349 751.09C923.082 756.587 918.425 761.204 911.682 761.438C898.798 761.885 885.975 750.216 877.158 742.045C875.977 747.305 872.591 761.555 870.14 765.979C870.017 768.203 872.079 778.474 872.623 781.621C876.469 803.87 877.415 826.279 891.283 845.055C876.635 840.478 872.682 838.128 859.904 830.191C848.93 882.069 840.113 903.055 790.046 927.358C801.24 911.354 799.909 901.222 797.879 882.488C793.332 889.798 788.615 897.528 783.739 904.579C762.545 935.234 721.67 952.275 685.52 958.007C693.311 947.768 699.471 933.696 701.826 921.036C696.484 927.798 688.352 934.829 681.749 940.413C651.539 965.961 624.69 974.009 587.34 982.326C597.484 972.184 599.653 962.656 602.057 948.917C583.396 962.046 565.21 975.225 545.006 985.972C511.934 1003.57 474.876 1013.9 438.363 1021.62C438.115 1000.04 427.404 984.879 410.602 972.335C410.439 984.148 408.539 989.701 403.744 1000.12C394.789 990.31 391.813 980.258 381.142 970.519C358.097 949.488 331.091 946.11 306.272 926.3C309.132 942.196 315.053 951.816 321.528 966.444C310.533 961.583 298.048 957.59 286.728 952.95C257.371 940.915 230.414 922.657 212.182 896.24C204.825 885.581 200.066 874.519 193.043 863.557C189.8 878.058 190.665 889.897 195.374 904.093C166.797 881.774 144.894 835.18 134.595 801C131.188 789.693 128.95 778.687 125.945 767.33C118.563 779.028 114.022 794.068 113.099 807.829C102.852 782.491 98.1357 756.242 102.129 729.034C94.3662 737.135 89.2395 745.061 85.628 755.671C80.2195 709.632 83.3774 692.894 108.793 653.442C97.3371 656.222 91.993 657.244 82.0948 663.907C89.0158 652.076 97.0831 639.781 106.635 629.998C124.561 611.639 145.961 598.174 162.39 578.259C165.725 574.217 169.603 570.226 172.095 565.545C160.433 575.056 151.407 589.88 136.462 597.11C137.02 594.854 138.736 588.531 138.733 586.588C132.785 590.739 126.912 595.252 120.715 599.016C114.82 602.598 107.746 605.892 100.72 603.954C97.9474 603.189 96.0052 601.155 94.7263 598.641C86.4582 582.396 101.462 528.585 105.782 510.863C108.111 501.311 109.988 491.53 112.813 482.119L96.6168 496.745C107.686 478.863 118.857 453.055 107.906 432.946C96.7634 412.485 71.1812 426.569 57.7319 434.3C64.4891 429.019 103.93 394.743 90.2618 387.141C85.2868 387.078 81.0295 389.967 76.625 392.353C83.0362 379.164 105.395 356.671 72.5703 362.58C85.4688 349.435 70.6971 345.043 59.8152 342.842C54.2609 341.718 48.3787 340.177 42.8397 338.846C50.224 338.792 62.7264 336.188 70.433 334.835C40.4333 330.671 24.577 327.017 -1.6314 312.27C13.02 312.228 28.6885 309.155 42.0167 303.006C34.2279 302.03 24.6369 299.958 16.7862 298.463C33.3404 294.316 47.8212 285.647 62.894 277.869C89.3987 264.191 118.081 248.16 140.734 228.488C136.813 228.436 131.395 227.758 127.384 227.374C153.484 217.547 159.304 214.295 176.989 192.837C163.204 201.661 149.014 208.55 132.847 211.865C124.613 213.554 116.653 214.416 108.379 216.302C133.981 205.929 154.312 189.099 173.768 170.002C180.429 163.464 187.178 157.698 193.441 150.598C186.224 151.855 181.923 152.674 174.978 155.062L175.383 152.447C192.911 138.805 202.504 143.043 215.881 122.711C205.102 120.703 198.333 120.963 187.847 125.166C194.616 119.102 199.381 114.987 207.307 110.095C214.342 105.754 222.463 101.944 229.333 97.6039C215.878 94.1653 209.663 91.154 198.632 83.1389C217.008 89.5345 229.156 86.546 247.523 82.0897C237.476 74.6448 230.347 69.6942 224.155 58.4668C237.377 64.2556 243.694 65.8586 257.67 67.9534C252.589 63.511 248.066 58.5161 243.435 53.6022ZM771.268 595.311C772.522 598.112 773.499 600.888 775.529 603.13C775.807 601.152 773.201 596.958 772.087 594.991L771.268 595.311Z"/><path fill="#66676D" fill-opacity="0.98823529" transform="scale(0.784774 0.784946)" d="M772.087 594.991C773.201 596.958 775.807 601.152 775.529 603.13C773.499 600.888 772.522 598.112 771.268 595.311L772.087 594.991Z"/><path transform="scale(0.784774 0.784946)" d="M218.815 454.672C262.398 438.398 316.885 425.382 363.579 425.852C360.405 432.798 357.37 439.806 354.48 446.875C324.301 456.575 287.199 468.643 261.84 488.502C295.921 471.112 313.777 464.65 350.393 456.317C348.792 461.475 347.082 467.588 344.958 472.471C329.895 482.215 311.026 488.636 294.938 496.097C267.453 508.846 250.024 525.834 229.138 547C223.478 552.737 214.011 557.955 207.757 563.325C196.141 572.618 184.252 585.321 175.827 597.534L176.644 598.953C191.176 580.79 205.648 568.847 224.593 555.689C225.754 554.448 226.611 554.539 228.32 554.299C240.722 541.978 270.643 529.562 287.063 522.732C288.655 521.73 289.097 521.814 290.964 521.356C294.152 520.412 299.702 517.762 303.437 516.393C313.46 512.771 323.613 509.525 333.878 506.66C327.813 514.356 323.234 520.963 319.454 530.184C325.563 522.416 330.557 516.809 337.53 509.714C336.108 519.805 334.872 529.418 334.663 539.629C278.687 567.79 234.908 592.508 202.495 649.105L204.174 650.482C231.001 602.71 275.326 573.092 324.611 551.601C328.068 550.094 331.771 548.303 335.184 546.65C335.801 552.146 336.353 558.593 337.455 563.937C308.18 588.355 285.969 613.282 273.372 650.126C270.397 658.834 267.889 666.907 267.047 676.174C266.956 677.166 266.879 678.161 266.817 679.156C269.7 669.464 272.168 659.715 275.78 650.283C288.549 616.926 311.814 591.838 338.062 568.403C340.853 584.488 343.166 590.044 351.371 604.068C343.698 620.337 337.622 634.191 337.74 652.659C341.597 636.081 345.383 621.784 353.797 606.738C363.71 615.241 374.617 622.301 388.669 620.737C419.641 617.289 440.469 591.335 465.674 575.399C485.526 563.603 513.178 548.291 536.75 551.577C539.881 552.013 544.369 556.139 546.936 557.996C561.98 568.879 569.576 578.756 579.36 594.365C596.642 621.937 611.792 674.212 652.083 672.177C658.791 671.667 664.473 669.842 670.655 667.595C673.119 694.428 672.596 700.565 666.875 726.78C674.635 711.267 676.485 683.217 673.374 666.007C684.206 657.749 688.357 653.538 697.977 643.722C712.127 669.635 722.317 706.066 722.796 735.8C724.85 738.706 722.103 747.088 724.321 750.693C727.475 724.24 722.619 692.415 713.078 667.697C709.455 658.312 704.576 649.5 701.081 639.645C704.66 634.656 707.31 630.382 710.493 625.17C742.63 657.036 772.684 699.096 784.388 743.288C788.256 757.896 788.936 767.658 791.248 781.946C792.168 772.282 789.938 756.842 787.874 747.241C776.274 693.258 746.718 660.916 713.754 620.12C719.024 609.594 721.361 603.098 723.769 591.732C734.648 602.441 750.302 625.629 757.864 638.901L759.441 637.804C749.463 619.083 742.38 606.605 729.493 589.373C748.937 604.945 796.604 649.22 802.348 672.509L803.681 670.08C804.691 670.704 804.255 670.27 804.654 671.766C818.496 689.66 829.714 719.849 835.628 741.354L836.775 740.332C831.503 720.317 826.263 702.061 816.447 683.679C812.494 676.278 806.659 668.594 803.018 661.216C798.121 651.292 795.21 640.445 790.222 630.315C775.89 601.203 753.122 579.3 730.47 556.759C730.966 551.729 731.193 547.03 731.429 541.995C750.182 559.788 758.326 573.555 771.268 595.311C772.522 598.112 773.499 600.888 775.529 603.13C775.807 601.152 773.201 596.958 772.087 594.991C763.535 574.205 746.416 546.219 729.973 530.74C752.894 541.869 766.628 559.218 785.945 574.939C790.717 578.824 795.625 582.298 801.547 584.101C784.796 573.106 778.685 564.78 764.582 551.148C753.309 540.382 741.906 529.753 730.376 519.263C729.721 509.844 728.94 500.435 728.034 491.037C762.329 504.099 805.886 533.786 834.079 557.606C824.485 623.257 822.592 692.129 859.546 751.04C862.816 756.251 867.514 760.061 870.14 765.979C870.017 768.203 872.079 778.474 872.623 781.621C876.469 803.87 877.415 826.279 891.283 845.055C876.635 840.478 872.682 838.128 859.904 830.191C848.93 882.069 840.113 903.055 790.046 927.358C801.24 911.354 799.909 901.222 797.879 882.488C793.332 889.798 788.615 897.528 783.739 904.579C762.545 935.234 721.67 952.275 685.52 958.007C693.311 947.768 699.471 933.696 701.826 921.036C696.484 927.798 688.352 934.829 681.749 940.413C651.539 965.961 624.69 974.009 587.34 982.326C597.484 972.184 599.653 962.656 602.057 948.917C583.396 962.046 565.21 975.225 545.006 985.972C511.934 1003.57 474.876 1013.9 438.363 1021.62C438.115 1000.04 427.404 984.879 410.602 972.335C410.439 984.148 408.539 989.701 403.744 1000.12C394.789 990.31 391.813 980.258 381.142 970.519C358.097 949.488 331.091 946.11 306.272 926.3C309.132 942.196 315.053 951.816 321.528 966.444C310.533 961.583 298.048 957.59 286.728 952.95C257.371 940.915 230.414 922.657 212.182 896.24C204.825 885.581 200.066 874.519 193.043 863.557C189.8 878.058 190.665 889.897 195.374 904.093C166.797 881.774 144.894 835.18 134.595 801C131.188 789.693 128.95 778.687 125.945 767.33C118.563 779.028 114.022 794.068 113.099 807.829C102.852 782.491 98.1357 756.242 102.129 729.034C94.3662 737.135 89.2395 745.061 85.628 755.671C80.2195 709.632 83.3774 692.894 108.793 653.442C97.3371 656.222 91.993 657.244 82.0948 663.907C89.0158 652.076 97.0831 639.781 106.635 629.998C124.561 611.639 145.961 598.174 162.39 578.259C165.725 574.217 169.603 570.226 172.095 565.545C198.877 530.421 208.152 496.923 218.815 454.672Z"/><path fill="#B0B1B2" transform="scale(0.784774 0.784946)" d="M224.593 555.689C225.754 554.448 226.611 554.539 228.32 554.299C217.838 569.188 212.534 580.878 203.645 594.733C206.095 587.586 224.593 555.687 224.593 555.689Z"/><path fill="#DADBDC" transform="scale(0.784774 0.784946)" d="M802.348 672.509L803.681 670.08C804.691 670.704 804.255 670.27 804.654 671.766C805.687 681.274 809.163 696.442 808.146 705.635C806.725 694.557 804.456 683.486 802.348 672.509Z"/><path fill="#DADBDC" transform="scale(0.784774 0.784946)" d="M160.128 621.069C165.156 611.267 169.181 606.137 175.827 597.534L176.644 598.953C171.533 606.103 165.697 613.925 160.955 621.236L160.128 621.069Z"/><path fill="#B0B1B2" transform="scale(0.784774 0.784946)" d="M194.687 666.287C196.768 659.974 199.27 654.876 202.495 649.105L204.174 650.482C201.938 654.6 197.248 662.767 195.617 666.723L194.687 666.287Z"/><path fill="#DADBDC" transform="scale(0.784774 0.784946)" d="M722.796 735.8C724.85 738.706 722.103 747.088 724.321 750.693C724.141 755.557 723.272 759.559 721.917 764.186C722.15 754.542 722.715 745.835 722.796 735.8Z"/><path fill="#B0B1B2" transform="scale(0.784774 0.784946)" d="M759.441 637.804C762.82 643.719 764.09 647.583 766.003 654.148C762.879 648.81 760.311 644.603 757.864 638.901L759.441 637.804Z"/><path fill="#B0B1B2" transform="scale(0.784774 0.784946)" d="M287.063 522.732C288.655 521.73 289.097 521.814 290.964 521.356C287.916 525.917 282.329 534.704 279.07 538.463C280.302 535.932 286.666 524.566 287.063 522.732Z"/><path fill="#B0B1B2" transform="scale(0.784774 0.784946)" d="M836.775 740.332C838.052 746.238 839.501 752.549 839.692 758.583L839.215 759.425L838.228 758.228C838.367 754.045 836.548 745.726 835.628 741.354L836.775 740.332Z"/><path fill="#414143" transform="scale(0.784774 0.784946)" d="M160.955 621.236C159.368 624.367 157.678 628.213 155.387 630.793L154.925 630.5L155.553 630.75L155.061 629.897C155.827 627.672 158.803 623.094 160.128 621.069L160.955 621.236Z"/><path fill="#414143" transform="scale(0.784774 0.784946)" d="M838.228 758.228L839.215 759.425L839.692 758.583C840.506 760.2 840.581 763.414 839.664 765.069C838.322 763.607 838.412 760.396 838.228 758.228Z"/><path fill="#414143" transform="scale(0.784774 0.784946)" d="M195.617 666.723C194.87 668.759 194.023 671.826 192.555 673.233C192.482 670.931 193.771 668.508 194.687 666.287L195.617 666.723Z"/><path fill="#FEFEFE" transform="scale(0.784774 0.784946)" d="M450.405 626.471C465.411 624.125 494.483 633.768 497.456 649.6C501.016 668.555 499.156 692.365 500.714 711.846C505.086 687.946 504.812 638.859 537.833 639.178C567.134 639.463 622.517 681.941 591.456 712.936C590.573 700.292 589.55 687 573.185 692.999C547.39 711.278 558.626 752.932 517.58 765.859C501.646 770.784 484.411 769.2 469.64 761.453C458.774 755.735 455.662 749.48 446.958 741.546C441.928 736.962 432.266 732.491 429.034 725.934C423.539 716.15 426.321 701.723 422.799 692.095C416.565 675.053 410.881 658.49 405.525 641.154C420.84 634.268 433.735 629.192 450.405 626.471Z"/><path fill="#FEFEFE" transform="scale(0.784774 0.784946)" d="M315.263 600.26C328.05 633.587 326.058 674.522 334.774 708.905C340.022 729.612 346.243 739.591 363.925 750.026C363.715 754.88 362.665 761.005 362.228 766.184C361.116 779.336 370.024 791.107 377.333 801.428C397.681 830.16 423.426 843.631 457.613 848.73C486.949 853.105 518.229 851.238 542.609 832.602C549.83 827.083 560.153 819.14 561.69 809.571C562.358 805.416 562.674 800 563.401 795.313C601.041 787.738 616.035 740.512 631.926 709.29L633.082 710.527C616.004 747.157 613.935 785.479 573.196 804.002C573.047 805.548 572.89 807.094 572.726 808.639C569.37 839.929 558.533 859.55 534.387 879.055C536.723 871.222 538.418 864.91 540.148 856.938C524.555 879.388 514.352 886.068 489.868 897.176C495.9 888.558 498.948 883.671 503.39 874.088C482.158 892.016 469.572 886.94 452.869 909.836C445.894 884.438 433.787 882.401 419.204 867.044L418.585 866.383C420.55 873.929 422.706 881.424 425.048 888.863C403.21 870.586 395.256 861.69 381.786 836.084C381.573 848.144 382.788 855.719 385.233 867.203C368.861 844.803 364.231 832.256 359.948 805.292C358.83 811.845 357.906 818.431 357.177 825.04C347.817 806.495 344.541 780.956 348.176 760.495C319.846 729.681 323.528 683.925 321.021 645.161C320.047 630.091 317.537 615.185 315.263 600.26Z"/><path fill="#FEFEFE" transform="scale(0.784774 0.784946)" d="M390.425 646.076C391.829 646.693 392.932 647.517 393.892 648.733C396.363 651.868 412.366 692.734 413.87 698.127C415.175 702.809 416.327 708.569 415.706 713.448C414.996 719.028 411.309 723.029 406.932 726.135C403.742 727.54 400.372 728.712 397.092 729.918C393.843 726.75 390.188 723.662 389.145 719.195C384.807 700.599 381.51 662.443 390.425 646.076Z"/><path fill="#FEFEFE" transform="scale(0.784774 0.784946)" d="M385.654 753.729C388.067 755.535 392.409 763.686 394.341 766.901C405.201 784.973 436.582 797.01 457.059 801.443C473.364 804.973 508.744 807.431 525.599 803.653C530.047 802.657 540.95 795.358 545.139 792.656L540.293 798.937C523.25 817.346 515.443 815.935 493.24 810.936C485.241 810.001 475.959 810.948 468.047 810.273C435.375 807.48 392.863 789.442 385.654 753.729Z"/><path fill="#FEFEFE" transform="scale(0.784774 0.784946)" d="M431.818 745.087C440.878 745.994 439.915 748.084 446.639 754.52C449.901 757.641 462.023 764.909 461.863 769.491C461.657 775.364 456.838 780.378 452.714 784.357C450.008 783.172 448.025 781.96 445.504 780.474C441.973 777.243 443.244 768.125 443.513 763.534C440.176 769.669 433.203 780.267 425.518 770.506C422.603 766.804 422.273 759.31 423.365 754.835C424.644 749.595 427.4 747.664 431.818 745.087Z"/><path fill="#FEFEFE" transform="scale(0.784774 0.784946)" d="M577.305 697.471C578.444 697.77 579.681 698.077 580.626 698.708C581.802 699.491 582.797 701.888 582.824 703.219C583.155 720.221 559.219 754.65 549.159 766.602L547.119 767.95L546.008 767.624C542.495 761.117 554.204 743.583 556.571 736.981C562.468 720.528 564.559 710.156 577.305 697.471Z"/><path fill="#FEFEFE" transform="scale(0.784774 0.784946)" d="M406.229 733.105C416.618 732.7 419.236 738.724 422.982 747.188C421.807 752.661 419.85 757.84 417.821 763.035C408.918 772.728 397.369 741.758 406.229 733.105Z"/><path fill="#FEFEFE" transform="scale(0.784774 0.784946)" d="M536.205 765.912L537.447 766.961C540.203 773.353 532.765 780.951 528.208 784.877C524.272 788.269 521.779 789.64 516.527 789.149C507.109 775.181 520.073 774.812 529.984 769.953C531.98 768.975 534.354 767.227 536.205 765.912Z"/><path fill="#FEFEFE" transform="scale(0.784774 0.784946)" d="M466.269 768.875C471.057 771.672 476.98 773.989 482.173 775.948C480.59 780.661 480.033 782.646 477.577 786.913C475.226 789.181 473.611 790.23 470.363 790.276C463.04 787.556 465.094 774.739 466.269 768.875Z"/><path fill="#FEFEFE" transform="scale(0.784774 0.784946)" d="M488.591 777.267C493.842 777.221 503.668 775.545 504.894 781.802C504.209 784.692 503.26 785.726 501.603 788.167C489.134 797.096 488.058 787.547 488.591 777.267Z"/><path fill="#B0B1B2" transform="scale(0.784774 0.784946)" d="M639.038 697.42C637.111 701.962 635.385 706.144 633.082 710.527L631.926 709.29C634.279 704.549 635.923 701.757 639.038 697.42Z"/><path fill="#FEFEFE" transform="scale(0.784774 0.784946)" d="M234.159 223.492C246.215 197.692 293.255 146.516 315.868 129.512C281.91 178.578 257.42 233.564 243.66 291.635C250.761 283.934 254.512 279.608 262.71 273.109C257.86 282.577 252.846 292.099 249.055 302.044C235.627 337.263 230.844 375.202 225.657 412.339C223.915 424.809 220.279 438.776 219.414 451.11C269.109 432.35 312.291 421.138 365.909 421.487C369.628 413.085 373.471 404.408 378.198 396.513C375.657 405.076 372.778 413.334 369.872 421.771C377.252 422.661 385.704 424.068 392.921 425.877C384.85 426.052 376.741 425.529 368.694 424.861L354.261 472.865C371.089 469.614 392.052 464.787 408.91 465.956C388.042 469.87 373.955 471.885 353.259 478.547C351.522 485.167 349.938 491.988 349.545 498.842C359.808 496.716 365.392 495.762 376.108 495.249C367.363 498.469 358.132 499.564 349.12 501.675C346.431 512.617 346.105 524.692 346.065 535.964C367.787 526.835 386.095 516.447 406.852 507.052C394.369 518.565 361.814 531.616 345.947 540.777C346.435 545.808 347.175 551.797 347.447 556.769C355.333 551.869 363.513 546.544 371.913 542.676C364.806 549.588 355.307 555.155 348.161 561.769C351.053 574.372 352.097 579.989 359.141 591.081C376.006 569.749 391.752 550.246 417.221 538.253C399.462 555.488 373.601 573.109 361.935 594.699C369.909 601.766 377.415 605.988 388.492 605.213C417.268 602.932 439.041 580.27 461.996 565.283C478.24 554.678 493.965 546.56 512.437 540.835C530.674 535.181 539.981 534.509 554.879 547.859C566.966 558.692 577.431 570.187 586.216 583.948C602.028 608.291 616.89 661.283 653.104 659.93C658.927 659.713 663.119 658.202 668.314 655.966C664.955 644.348 662.258 635.677 657.449 624.553C652.029 612.017 645.126 599.304 640.093 586.743C653.307 603.791 669.119 632.684 671.24 654.159C679.867 648.659 687.106 643.019 692.678 634.196C688.689 626.306 683.597 618.123 680.042 610.344C687.327 618.062 689.257 622.21 694.725 630.964C697.716 626.185 701.051 621.081 703.826 616.214C693.165 603.508 668.859 575.9 661.431 563.354C668.267 569.802 675.628 578.958 681.992 586.04C689.893 594.833 698.063 603.62 705.563 612.725C710.162 601.523 713.342 592.106 716.786 580.495C708.717 574.021 700.276 568.218 692.233 561.77C701.297 565.817 710.007 570.612 718.276 576.105C719.492 569.76 720.816 563.436 722.246 557.137C706.939 543.65 692.326 535.714 676.944 523.825C694.852 531.336 706.527 539.557 722.346 551.024C725.731 532.725 725.238 508.339 725.135 489.704C718.719 487.33 708.874 483.974 703.138 480.904C710.911 482.284 717.679 483.447 725.276 485.756C725.035 482.265 724.569 477.743 724.934 474.358C725.787 478.256 726.563 482.17 727.259 486.099C773.939 506.087 795.679 521.304 834.808 553.844C836.304 540.75 838.456 522.652 841.348 510.024C851.87 464.095 856.768 432.823 847.692 386.45C852.517 391.528 857.834 403.343 860.766 409.852C861.255 393.408 861.682 376.966 862.307 360.509C863.927 317.901 860.397 271.999 847.666 231.325C866.648 261.434 883.059 306.647 891.278 341.367C887.482 336.084 883.749 326.403 880.727 320.318C877.545 313.911 875.073 310.06 871.129 304.221C874.398 322.343 876.853 340.455 879.86 358.599C881.607 369.153 886.011 380.684 889.897 390.688C885.264 385.79 879.936 377.957 876.071 372.292C877.728 383.37 881.592 427.149 876.981 435.599C876.031 422.895 874.757 405.435 871.556 393.165C867.341 453.029 854.259 503.296 844.956 562.026C856.624 573.522 873.587 589.866 883.517 602.466L882.305 603.042C868.278 588.055 859.929 579.56 844.474 566.084C838.782 623.454 833.601 686.995 872.134 736.227C873.399 737.843 875.797 740.728 877.158 742.045C875.977 747.305 872.591 761.555 870.14 765.979C867.514 760.061 862.816 756.251 859.546 751.04C822.592 692.129 824.485 623.257 834.079 557.606C805.886 533.786 762.329 504.099 728.034 491.037C728.94 500.435 729.721 509.844 730.376 519.263C741.906 529.753 753.309 540.382 764.582 551.148C778.685 564.78 784.796 573.106 801.547 584.101C795.625 582.298 790.717 578.824 785.945 574.939C766.628 559.218 752.894 541.869 729.973 530.74C746.416 546.219 763.535 574.205 772.087 594.991L771.268 595.311C758.326 573.555 750.182 559.788 731.429 541.995C731.193 547.03 730.966 551.729 730.47 556.759C753.122 579.3 775.89 601.203 790.222 630.315C795.21 640.445 798.121 651.292 803.018 661.216C806.659 668.594 812.494 676.278 816.447 683.679C826.263 702.061 831.503 720.317 836.775 740.332L835.628 741.354C829.714 719.849 818.496 689.66 804.654 671.766C804.255 670.27 804.691 670.704 803.681 670.08L802.348 672.509C796.604 649.22 748.937 604.945 729.493 589.373C742.38 606.605 749.463 619.083 759.441 637.804L757.864 638.901C750.302 625.629 734.648 602.441 723.769 591.732C721.361 603.098 719.024 609.594 713.754 620.12C746.718 660.916 776.274 693.258 787.874 747.241C789.938 756.842 792.168 772.282 791.248 781.946C788.936 767.658 788.256 757.896 784.388 743.288C772.684 699.096 742.63 657.036 710.493 625.17C707.31 630.382 704.66 634.656 701.081 639.645C704.576 649.5 709.455 658.312 713.078 667.697C722.619 692.415 727.475 724.24 724.321 750.693C722.103 747.088 724.85 738.706 722.796 735.8C722.317 706.066 712.127 669.635 697.977 643.722C688.357 653.538 684.206 657.749 673.374 666.007C676.485 683.217 674.635 711.267 666.875 726.78C672.596 700.565 673.119 694.428 670.655 667.595C664.473 669.842 658.791 671.667 652.083 672.177C611.792 674.212 596.642 621.937 579.36 594.365C569.576 578.756 561.98 568.879 546.936 557.996C544.369 556.139 539.881 552.013 536.75 551.577C513.178 548.291 485.526 563.603 465.674 575.399C440.469 591.335 419.641 617.289 388.669 620.737C374.617 622.301 363.71 615.241 353.797 606.738C345.383 621.784 341.597 636.081 337.74 652.659C337.622 634.191 343.698 620.337 351.371 604.068C343.166 590.044 340.853 584.488 338.062 568.403C311.814 591.838 288.549 616.926 275.78 650.283C272.168 659.715 269.7 669.464 266.817 679.156C266.879 678.161 266.956 677.166 267.047 676.174C267.889 666.907 270.397 658.834 273.372 650.126C285.969 613.282 308.18 588.355 337.455 563.937C336.353 558.593 335.801 552.146 335.184 546.65C331.771 548.303 328.068 550.094 324.611 551.601C275.326 573.092 231.001 602.71 204.174 650.482L202.495 649.105C234.908 592.508 278.687 567.79 334.663 539.629C334.872 529.418 336.108 519.805 337.53 509.714C330.557 516.809 325.563 522.416 319.454 530.184C323.234 520.963 327.813 514.356 333.878 506.66C323.613 509.525 313.46 512.771 303.437 516.393C299.702 517.762 294.152 520.412 290.964 521.356C289.097 521.814 288.655 521.73 287.063 522.732C270.643 529.562 240.722 541.978 228.32 554.299C226.611 554.539 225.754 554.448 224.593 555.689C205.648 568.847 191.176 580.79 176.644 598.953L175.827 597.534C184.252 585.321 196.141 572.618 207.757 563.325C214.011 557.955 223.478 552.737 229.138 547C250.024 525.834 267.453 508.846 294.938 496.097C311.026 488.636 329.895 482.215 344.958 472.471C347.082 467.588 348.792 461.475 350.393 456.317C313.777 464.65 295.921 471.112 261.84 488.502C287.199 468.643 324.301 456.575 354.48 446.875C357.37 439.806 360.405 432.798 363.579 425.852C316.885 425.382 262.398 438.398 218.815 454.672C208.152 496.923 198.877 530.421 172.095 565.545C160.433 575.056 151.407 589.88 136.462 597.11C137.02 594.854 138.736 588.531 138.733 586.588C144.981 580.5 153.04 572.904 158.435 566.209C181.918 537.066 196.922 497.225 203.809 460.729L203.73 458.255C209.151 447.582 213.801 406.242 215.832 392.401C219.124 369.126 222.782 345.905 226.809 322.747C230.421 303.015 235.364 288.474 240.119 269.541C230.251 283.568 226.699 294.361 219.107 309.198C222.356 291.904 233.977 266.237 241.877 250.468L223.352 263.377C230.51 254.307 239.778 243.192 245.673 233.543C254.238 219.527 261.268 203.838 269.243 189.372C252.944 202.971 247.702 207.478 234.159 223.492Z"/><path transform="scale(0.784774 0.784946)" d="M730.576 564.187C748.209 574.394 777.718 613.86 787.571 632.406C789.121 635.326 794.93 646.181 794.182 648.75L792.873 647.556C776.112 625.078 748.889 598.799 726.571 581.961C728.055 577.256 729.507 569.23 730.576 564.187Z"/><path transform="scale(0.784774 0.784946)" d="M311.733 492.9L312.203 493.72C308.252 498.124 296.112 512.283 291.736 514.755C275.504 523.921 257.41 530.299 241.111 540.179L240.762 539.442C262.209 517.255 284.678 505.804 311.733 492.9Z"/><path transform="scale(0.784774 0.784946)" d="M340.204 482.787C341.179 482.612 340.631 482.615 341.839 482.956C342.299 485.474 339.212 498.029 338.428 501.522C322.186 505.512 314.584 507.541 298.815 513.317L297.759 513.465L297.601 512.732C308.893 498.899 323.724 489.248 340.204 482.787Z"/><path fill="#DADBDC" transform="scale(0.784774 0.784946)" d="M152.431 485.31C163.061 477.444 191.265 461.821 203.73 458.255L203.809 460.729C184.747 468.472 170.789 476.165 152.431 485.31Z"/><path fill="#414143" transform="scale(0.784774 0.784946)" d="M890.987 611.039C894.468 614.616 896.584 617.778 899.067 622.133C895.956 619.965 892.087 614.933 889.931 611.757L890.987 611.039Z"/><path fill="#B0B1B2" transform="scale(0.784774 0.784946)" d="M883.517 602.466C886.149 605.362 888.509 608.013 890.987 611.039L889.931 611.757C887.434 608.812 884.892 605.907 882.305 603.042L883.517 602.466Z"/><path fill="#FEFEFE" transform="scale(0.784774 0.784946)" d="M546.185 268.132C559.343 267.395 574.458 273.162 587.398 275.893C600.997 278.763 615.655 280.805 628.702 285.526C636.857 288.441 644.53 292.556 651.471 297.736C677.056 316.82 701.912 368.061 682.087 398.595C671.308 415.195 637.712 410.893 634.899 389.843C633.693 380.82 645.18 374.934 649.99 368.902C661.103 356.829 643.5 342.912 631.48 345.632C597.504 353.321 588.975 400.323 619.379 419.369C639.695 432.095 650.483 426.335 671.524 420.082C673.135 419.603 674.639 419.806 675.86 420.732C676.699 426.76 670.474 436.059 666.391 440.229C660.43 446.32 652.933 449.426 645.854 453.819C636.663 459.52 628.479 467.84 617.764 470.657C606.928 473.49 595.263 470.607 584.578 474.402C574.747 477.895 564.2 485.005 555.226 490.549C561.022 466.917 565.697 441.638 570.033 417.674C571.494 405.201 574.116 395.284 574.942 382.094C573.276 385.021 570.717 389.764 569.782 392.931C560.629 423.913 555.467 455.854 545.787 486.764C538.694 475.686 530.297 460.16 518.064 455.295C497.531 447.129 490.925 435.788 478.606 418.23C472.596 409.665 450.011 384.366 459.373 373.337C462.688 373.193 472.501 382.106 475.871 384.656C488.497 394.104 505.397 397.511 520.769 395.223C544.419 391.702 557.145 371.306 552.787 348.373C551.143 340.021 548.145 330.911 540.899 325.726C532.7 319.859 516.685 319.84 510.682 328.701C505.647 336.131 511.751 346.594 513.311 354.521C515.042 366.925 509.188 369.852 498.73 372.083C480.02 376.077 462.655 361.654 460.047 343.345C458.472 332.3 465.929 313.748 473.743 305.106C493.527 283.224 516.492 271.095 546.185 268.132Z"/><path fill="#FEFEFE" transform="scale(0.784774 0.784946)" d="M453.745 73.1303C467.198 74.8293 484.279 81.1149 493.712 91.1413C507.933 106.259 508.795 122.95 508.566 142.235C518.956 131.381 516.935 130.506 522.76 118.547L522.96 118.141C523.298 138.378 520.831 146.006 512.942 164.333C518.966 158.468 523.633 152.34 528.701 145.699C514.69 207.879 478.698 215.948 437.799 254.893C405.459 285.688 387.88 321.951 348.103 347.352C364.367 323.838 363.924 319.552 372.317 293.169C361.445 296.973 357.513 297.274 346.154 296.492C349.551 291.387 351.601 287.575 353.871 281.929L353.526 281.109C351.948 280.347 347.145 280.658 345.151 280.626C338.157 280.512 333.837 279.625 327.375 277.159C329.193 275.885 330.973 274.98 331.778 272.961C330.346 270.869 318.287 271.503 312.856 269.187C321.683 266.038 324.17 264.554 330.956 258.003C323.881 259.284 318.325 259.229 311.217 259.243C319.712 248.093 324.14 241.873 328.273 228.538C315.323 233.638 310.327 234.824 296.529 235.046C310.594 221.858 316.458 212.087 325.064 194.835C330.438 184.063 339.202 172.771 347.244 163.921C339.137 167.322 331.756 171.123 323.928 175.085C343.612 149.105 372.865 134.87 405.227 135.024C390.558 129.354 383.974 128.808 368.457 128.766C391.453 115.386 406.981 112.557 432.726 116.803C424.485 103.73 421.101 100.169 407.794 91.9782C434.885 83.345 448.166 83.3425 473.991 93.8341C468.489 85.4411 461.252 79.5966 453.745 73.1303Z"/><path transform="scale(0.784774 0.784946)" d="M421.381 161.614C438.82 161.521 447.615 174.096 454.708 187.811C455.147 179.881 454.953 174.627 453.931 166.766C461.986 183.701 462.072 189.581 461.073 208.108C464.855 206.467 469.167 204.238 472.922 202.414C461.813 225.674 445.975 239.308 423.497 250.446C428.904 244.274 432.896 239.556 437.756 232.953C434.489 234.03 431.247 235.275 428.018 236.474C411.758 242.524 387.609 248.656 373.952 235.331C360.642 222.345 362.73 223.719 343.41 222.852C380.925 199.059 383.531 162.756 435.856 174.313C431.324 168.99 426.858 165.881 421.381 161.614Z"/><path fill="#FEFEFE" transform="scale(0.784774 0.784946)" d="M424.176 189.482C424.511 189.48 424.846 189.481 425.182 189.485C434.058 189.622 443.159 195.945 432.47 203.119C431.982 203.143 431.494 203.162 431.007 203.179C419.985 203.529 414.412 197.922 424.176 189.482Z"/><path fill="#FEFEFE" transform="scale(0.784774 0.784946)" d="M376.48 213.827C378.236 215.358 382.563 228.851 385.531 231.288C385.536 231.862 385.541 232.436 385.548 233.01C377.085 228.91 372.888 223.136 376.48 213.827Z"/><path fill="#FEFEFE" transform="scale(0.784774 0.784946)" d="M727.37 138.517C735.747 137.558 743.766 138.645 751.982 140.134C739.756 144.966 736.797 144.422 725.398 152.002C752.212 150.65 765.942 158.581 786.03 174.735C770.546 177.52 767.577 179.422 755.001 188.44C782.646 193.96 791.55 201.462 810.708 221.93C796.659 216.431 791.209 214.861 776.327 214.592C807.485 230.165 822.787 247.834 834.384 281.153C828.378 273.723 823.288 268.595 816.314 262.171C822.966 279.526 826.169 294.092 828.604 312.539C830.015 323.223 834.962 335.904 839.351 345.806C826.016 339.785 820.474 335.877 810.115 326.175C810.475 341.196 813.073 348.029 818.031 362.093C814.045 359.628 806.156 352.665 804.285 352.159L803.688 353.1C804.02 358.822 807.46 365.234 809.922 370.499C804.691 368.851 801.552 367.291 796.772 364.67C795.191 363.791 795.235 363.624 793.477 363.703L793.005 364.788C794.096 369.127 796.018 371.378 798.946 374.526C785.78 374.65 783.041 373.871 771.152 368.905C771.664 376.61 772.47 379.949 774.776 387.36C763.085 384.036 760.8 382.839 751.291 375.247C749.537 400.543 748.473 408.678 754.915 433.656C754.282 432.934 753.668 432.196 753.074 431.442C730.458 403.301 720.967 351.4 705.831 318.666C692.214 289.216 670.812 264.298 661.298 233.125C655.312 213.512 656.55 198.367 658.684 178.642C659.699 187.212 661.905 195.807 666.368 203.276C664.833 183.265 666.698 175.415 673.155 156.992C673.34 168.858 672.972 173.654 678.268 184.347C685.848 157.44 698.763 141.814 727.37 138.517Z"/><path transform="scale(0.784774 0.784946)" d="M716.091 230.599L716.242 230.686C716.554 232.134 711.759 244.988 710.954 247.302C723.707 231.834 732.024 231.679 750.874 233.687C742.65 235.759 739.978 236.213 732.823 240.407L733.629 240.542C768.472 246.413 774.747 263.705 786.389 294.324C789.049 301.317 796.224 311.715 800.772 318.097C795.365 316.489 789.394 314.973 783.92 313.484C780.573 314.519 776.566 316.615 773.328 318.178C748.08 328.769 729.883 310.824 711.75 295.435C713.964 304.651 715.827 308.522 719.997 316.81C701.463 300.76 691.972 276.163 689.454 252.223C692.181 256.179 695.494 259.824 698.647 263.462C702.758 249.758 705.427 240.442 716.091 230.599Z"/><path fill="#FEFEFE" transform="scale(0.784774 0.784946)" d="M729.176 257.028C738.554 258.305 747.019 263.903 736.677 271.938C736.099 271.884 735.522 271.822 734.947 271.751C724.561 270.45 718.693 264.373 729.176 257.028Z"/><path fill="#FEFEFE" transform="scale(0.784774 0.784946)" d="M773.419 298.581C780.692 305.335 765.629 312.225 760.679 313.804L759.719 313.263C760.264 311.228 767.977 306.313 769.882 303.729C771.248 301.877 772.133 300.652 773.419 298.581Z"/><path fill="#DADBDC" transform="scale(0.784774 0.784946)" d="M611.59 526.246C618.565 531.247 620.176 554.171 620.045 561.938C619.203 560.808 612.527 530.68 611.59 526.246Z"/><path fill="#DADBDC" transform="scale(0.784774 0.784946)" d="M477.308 490.334L477.678 490.682C477.524 492.324 473.831 496.028 472.537 497.384C465.918 504.321 461.322 511.224 455.997 519.134L455.348 518.518C458.226 508.39 469.463 496.883 477.308 490.334Z"/><path fill="#DADBDC" transform="scale(0.784774 0.784946)" d="M615.272 495.731C622.868 499.747 628.185 522.302 629.013 530.298C627.768 528.302 624.723 518.323 623.406 515.168C620.734 508.755 617.849 502.168 615.272 495.731Z"/><path fill="#FEFEFE" transform="scale(0.784774 0.784946)" d="M485.813 461.4C485.576 463.042 464.611 482.409 461.567 485.315L461.391 484.597C464.106 477.132 478.918 465.381 485.813 461.4Z"/><path fill="#DADBDC" transform="scale(0.784774 0.784946)" d="M472.131 522.021C471.958 524.285 466.456 530.815 464.842 533.276C461.339 538.623 458.634 543.717 455.619 549.333C453.574 542.516 466.809 526.01 472.131 522.021Z"/><path fill="#FEFEFE" transform="scale(0.784774 0.784946)" d="M603.759 557.851C609.639 563.432 609.616 581.733 608.365 588.968L608.29 588.969C608.764 589.484 604.143 560.567 603.759 557.851Z"/><path fill="#DADBDC" transform="scale(0.784774 0.784946)" d="M628.337 488.978C634.38 494.077 637.294 506.404 637.989 513.895C634.355 507.867 629.861 495.813 628.337 488.978Z"/><path fill="#FEFEFE" transform="scale(0.784774 0.784946)" d="M478.643 449.241L479.029 449.634C478.502 451.074 463.852 463.504 461.065 466.188L460.781 465.917C460.804 460.901 474.77 451.692 478.643 449.241Z"/><path fill="#FEFEFE" transform="scale(0.784774 0.784946)" d="M564.661 511.744C569.029 517.537 567.425 526.342 566.349 533.074L565.842 533.212C564.478 531.185 564.601 515 564.661 511.744Z"/><path fill="#DADBDC" transform="scale(0.784774 0.784946)" d="M524.807 501.04L525.087 501.341C525.7 503.837 518.731 516.58 517.198 519.613L516.734 519.518L516.406 518.588C517.474 511.263 520.356 506.732 524.807 501.04Z"/><path fill="#DADBDC" transform="scale(0.784774 0.784946)" d="M491.866 511.13C493.343 512.701 485.662 527.964 484.511 530.489L484.092 530.319C482.303 526.051 489.122 514.579 491.866 511.13Z"/><path fill="#FEFEFE" transform="scale(0.784774 0.784946)" d="M589.519 538.24C594.168 542.102 591.739 552.404 590.861 557.79L590.48 558.22C589.42 556.353 589.54 541.427 589.519 538.24Z"/><path fill="#FEFEFE" transform="scale(0.784774 0.784946)" d="M505.749 478.357C505.997 478.582 505.96 478.993 506.036 479.319C503.026 483.713 499.686 487.913 496.424 492.125C495.908 491.802 496.239 492.065 495.749 491.049C497.077 486.123 501.66 481.282 505.749 478.357Z"/><path fill="#FEFEFE" transform="scale(0.784774 0.784946)" d="M470.826 437.739L471.404 437.761L471.882 438.312C469.292 440.923 463.283 444.662 460.009 446.854L459.143 446.782L459.2 445.814C462.162 441.908 466.477 439.704 470.826 437.739Z"/><path fill="#FEFEFE" transform="scale(0.784774 0.784946)" d="M638.449 481.392C643.938 485.445 645.932 490.824 647.949 497.035C644.979 495.282 639.908 484.826 638.449 481.392Z"/><path fill="#FEFEFE" transform="scale(0.784774 0.784946)" d="M506.202 511.775L506.506 512.02C506.863 514.628 501.586 522.57 499.957 525.306C497.247 522.632 504.318 513.999 506.202 511.775Z"/><path fill="#FEFEFE" transform="scale(0.784774 0.784946)" d="M591.103 502.162C595.405 505.051 595.258 513.011 595.412 517.672C593.978 515.77 591.786 505.22 591.103 502.162Z"/><path fill="#DADBDC" transform="scale(0.784774 0.784946)" d="M520.857 484.065C520.628 486.819 515.427 493.077 513.493 495.618C512.4 492.186 518.315 486.045 520.857 484.065Z"/><path fill="#B0B1B2" transform="scale(0.784774 0.784946)" d="M599.978 494.036C604.215 496.812 603.947 499.497 604.18 504.064L603.502 503.751C601.403 500.987 600.624 497.395 599.978 494.036Z"/><path fill="#FEFEFE" transform="scale(0.784774 0.784946)" d="M575.987 500.938C579.076 503.834 578.833 509.86 579.016 513.916C577.178 512.396 576.296 503.597 575.987 500.938Z"/><path fill="#FEFEFE" transform="scale(0.784774 0.784946)" d="M578.148 533.135C579.925 537.125 579.179 542.224 578.848 546.564L578.354 546.152C577.144 542.078 577.717 537.31 578.148 533.135Z"/><path fill="#DADBDC" transform="scale(0.784774 0.784946)" d="M499.796 468.085L500.448 468.839C499.163 471.205 496.622 473.354 494.63 475.287L494.224 474.87L494.286 473.821C495.96 471.075 497.374 470.108 499.796 468.085Z"/><path transform="scale(0.784774 0.784946)" d="M165.304 158.712C168.816 156.345 171.628 154.391 175.383 152.447L174.978 155.062L165.304 158.712Z"/></g></svg>